<?xml version="1.0" encoding="UTF-8"?>
<svg xmlns="http://www.w3.org/2000/svg" xmlns:xlink="http://www.w3.org/1999/xlink" viewBox="0 0 240.47 394.57">
  <defs>
    <style>
      .cls-1, .cls-2 {
        fill: #1de8de;
      }

      .cls-1, .cls-3 {
        opacity: .1;
      }

      .cls-4 {
        fill: #d6ffe8;
        opacity: .2;
      }

      .cls-5 {
        isolation: isolate;
      }

      .cls-3 {
        fill: #6eccff;
      }

      .cls-6 {
        fill: url(#radial-gradient);
        mix-blend-mode: screen;
        opacity: .5;
      }
    </style>
    <radialGradient id="radial-gradient" cx="115.65" cy="-1421.71" fx="115.65" fy="-1421.71" r="212.02" gradientTransform="translate(60.77 428.07) scale(.51 .03)" gradientUnits="userSpaceOnUse">
      <stop offset="0" stop-color="aqua"/>
      <stop offset=".04" stop-color="#00ecec"/>
      <stop offset=".17" stop-color="#00aeae"/>
      <stop offset=".3" stop-color="#007979"/>
      <stop offset=".43" stop-color="#004d4d"/>
      <stop offset=".55" stop-color="#002b2b"/>
      <stop offset=".67" stop-color="#001313"/>
      <stop offset=".78" stop-color="#000505"/>
      <stop offset=".87" stop-color="#000"/>
    </radialGradient>
  </defs>
  <g class="cls-5">
    <g id="Layer_2" data-name="Layer 2">
      <g id="layer">
        <g>
          <g>
            <g>
              <g>
                <g>
                  <g>
                    <path class="cls-2" d="M74.44,67.33s-.07,0-.1-.02l-40.32-13.03c-.11-.03-.19-.12-.22-.23-.03-.11,0-.22,.08-.3L78.55,7.23c.1-.1,.24-.13,.37-.07,.13,.06,.2,.18,.19,.32l-4.34,59.54c0,.1-.06,.19-.14,.25-.05,.04-.12,.06-.18,.06Zm-39.72-13.5l39.43,12.74,4.25-58.23L34.72,53.83Z"/>
                    <path class="cls-2" d="M26.07,85.47c-.08,0-.16-.03-.22-.08-.09-.08-.13-.21-.1-.32l8.06-31.17c.02-.09,.08-.16,.16-.2,.08-.04,.17-.05,.26-.02l40.32,13.03c.13,.04,.22,.16,.23,.3,0,.14-.08,.26-.21,.31l-48.38,18.14s-.08,.02-.11,.02Zm8.29-31.08l-7.82,30.23,46.92-17.59-39.1-12.63Z"/>
                    <path class="cls-2" d="M36.61,143s-.03,0-.05,0c-.14-.02-.25-.13-.27-.26l-10.54-57.53c-.03-.15,.06-.31,.21-.36l48.38-18.14c.13-.05,.27-.01,.36,.09,.09,.1,.11,.24,.05,.36l-37.83,75.67c-.06,.11-.17,.18-.29,.18Zm-10.17-57.64l10.32,56.3,37.03-74.06-47.35,17.76Z"/>
                    <path class="cls-2" d="M74.44,67.33c-.07,0-.13-.02-.19-.06-.09-.07-.14-.17-.13-.29l4.34-59.54c0-.09,.05-.17,.12-.23,.07-.06,.16-.08,.25-.07l103.58,15.51c.15,.02,.26,.14,.28,.28,.02,.15-.06,.28-.2,.34l-107.92,44.04s-.08,.02-.12,.02Zm4.64-59.49l-4.28,58.67L181.14,23.11,79.08,7.83Z"/>
                    <path class="cls-2" d="M163.14,87.18s-.05,0-.07,0l-88.69-19.85c-.14-.03-.24-.15-.25-.29s.07-.27,.2-.33L182.24,22.66c.11-.05,.25-.02,.34,.06,.09,.08,.13,.21,.09,.33l-19.23,63.88c-.04,.14-.17,.23-.31,.23Zm-87.61-20.26l87.38,19.55,18.94-62.94-106.33,43.39Z"/>
                    <path class="cls-2" d="M36.61,143c-.09,0-.17-.04-.24-.1-.09-.1-.12-.25-.06-.37l37.83-75.67c.07-.13,.21-.2,.36-.17l88.69,19.85c.14,.03,.24,.15,.25,.29,.01,.14-.06,.27-.19,.33l-126.53,55.82s-.09,.03-.13,.03Zm38.01-75.62l-37.32,74.63,124.8-55.06-87.48-19.58Z"/>
                    <path class="cls-2" d="M205.93,131.21c-.09,0-.17-.03-.23-.1l-42.8-44.04c-.08-.09-.11-.21-.08-.32l19.23-63.89c.04-.14,.17-.24,.32-.23,.15,0,.27,.11,.31,.26l23.57,107.92c.03,.14-.04,.29-.16,.36-.05,.03-.1,.04-.15,.04Zm-42.43-44.45l41.87,43.08-23.06-105.58-18.81,62.5Z"/>
                    <path class="cls-2" d="M205.93,131.21s-.01,0-.02,0c-.15,0-.27-.11-.3-.26l-23.57-107.92c-.03-.16,.05-.31,.2-.37,.15-.06,.32,0,.4,.14l38.65,65c.05,.08,.06,.18,.03,.27l-15.08,42.93c-.05,.13-.17,.22-.31,.22Zm-22.82-106.35l22.9,104.84,14.65-41.7-37.54-63.14Z"/>
                    <path class="cls-2" d="M205.93,131.21s-.06,0-.09-.01l-57.06-15.82c-.09-.03-.17-.09-.21-.18-.04-.09-.04-.19,0-.28l14.27-28.22c.05-.09,.14-.16,.24-.18,.1-.01,.21,.02,.28,.1l42.8,44.04c.1,.11,.12,.27,.05,.39-.06,.1-.17,.16-.28,.16Zm-56.59-16.35l55.52,15.39-41.64-42.85-13.88,27.46Z"/>
                    <path class="cls-2" d="M74.98,126.07c-.14,0-.27-.09-.31-.24-.04-.16,.03-.32,.18-.39l88.15-38.89c.13-.06,.27-.03,.37,.07,.09,.1,.12,.25,.05,.37l-14.27,28.22c-.05,.1-.14,.16-.24,.18l-73.89,10.67s-.03,0-.05,0Zm87.45-38.55l-85.15,37.56,71.37-10.31,13.78-27.26Z"/>
                    <path class="cls-2" d="M122.36,157.11c-.06,0-.12-.02-.18-.05l-47.37-31.04c-.11-.07-.17-.21-.14-.34,.03-.13,.14-.23,.27-.25l73.89-10.67c.12-.02,.25,.04,.32,.15,.07,.11,.07,.24,0,.35l-26.51,41.71c-.05,.07-.12,.12-.21,.14-.02,0-.05,0-.07,0Zm-46.48-31.17l46.38,30.39,25.96-40.83-72.34,10.45Z"/>
                    <path class="cls-2" d="M122.36,157.11s-.07,0-.11-.02l-43.26-15.82c-.1-.04-.17-.12-.2-.22l-4.11-15.22c-.04-.13,.01-.27,.12-.35,.11-.08,.26-.08,.37,0l47.37,31.04c.14,.09,.19,.27,.11,.42-.06,.11-.17,.18-.29,.18Zm-42.99-16.39l40.45,14.79-44.3-29.02,3.85,14.23Z"/>
                    <path class="cls-2" d="M36.61,143c-.15,0-.28-.1-.32-.25-.04-.15,.04-.31,.19-.37l38.37-16.93c.09-.04,.19-.04,.27,0,.09,.04,.15,.12,.17,.21l4.11,15.22c.03,.1,0,.2-.05,.28-.06,.08-.15,.13-.25,.13l-42.49,1.71s0,0-.01,0Zm38.16-16.8l-36.46,16.08,40.37-1.62-3.91-14.46Z"/>
                    <path class="cls-2" d="M28.86,162.69c-.08,0-.16-.03-.23-.09-.09-.09-.12-.23-.08-.35l7.75-19.69c.05-.12,.16-.2,.29-.21l42.49-1.71c.17-.03,.3,.1,.33,.25,.03,.15-.05,.31-.19,.37l-50.24,21.4s-.08,.03-.13,.03Zm7.98-19.7l-7.39,18.77,47.89-20.4-40.5,1.63Z"/>
                    <path class="cls-2" d="M205.93,131.21s-.01,0-.02,0l-50.55-2.95c-.12,0-.22-.07-.27-.18l-6.51-12.87c-.06-.12-.04-.25,.04-.35s.21-.14,.34-.11l57.06,15.82c.16,.04,.26,.2,.23,.37-.03,.16-.16,.27-.32,.27Zm-50.34-3.59l47.31,2.76-53.4-14.8,6.1,12.05Z"/>
                    <path class="cls-2" d="M122.36,157.11c-.08,0-.15-.03-.21-.08-.12-.11-.15-.29-.06-.42l26.52-41.71c.06-.1,.18-.16,.29-.15,.12,0,.22,.07,.27,.18l6.51,12.87c.07,.13,.04,.29-.08,.39l-33.03,28.84c-.06,.05-.14,.08-.21,.08Zm26.48-41.38l-25,39.32,31.14-27.19-6.14-12.13Z"/>
                    <path class="cls-2" d="M122.36,157.11c-.12,0-.23-.06-.29-.17-.07-.13-.04-.3,.07-.4l33.03-28.84c.09-.08,.22-.1,.33-.06l28.84,10.7c.13,.05,.22,.18,.21,.32,0,.14-.1,.26-.23,.3l-61.87,18.14s-.06,.01-.09,.01Zm33.1-28.79l-31.77,27.74,59.5-17.45-27.74-10.29Z"/>
                    <path class="cls-2" d="M211.21,164.08s-.08,0-.11-.02l-49.68-18.46c-.13-.05-.22-.18-.21-.32,0-.14,.1-.26,.23-.3l22.7-6.66c.11-.03,.23,0,.31,.07l26.98,25.12c.11,.11,.14,.28,.06,.41-.06,.1-.17,.15-.28,.15Zm-48.64-18.75l47.23,17.55-25.65-23.88-21.58,6.33Z"/>
                    <path class="cls-2" d="M184.23,138.96s-.08,0-.11-.02l-28.84-10.7c-.15-.06-.24-.21-.21-.37,.03-.16,.19-.26,.34-.26l50.55,2.95c.15,0,.28,.13,.3,.28,.02,.15-.07,.3-.21,.35l-21.71,7.75s-.07,.02-.11,.02Zm-26.69-10.57l26.69,9.9,20.09-7.17-46.78-2.73Z"/>
                    <path class="cls-2" d="M211.21,164.08c-.08,0-.16-.03-.22-.09l-26.98-25.12c-.08-.08-.12-.19-.1-.3,.02-.11,.1-.2,.21-.24l21.71-7.75c.09-.03,.19-.02,.28,.03,.08,.05,.14,.13,.16,.23l5.27,32.87c.02,.14-.05,.27-.17,.34-.05,.03-.1,.04-.15,.04Zm-26.37-25.32l25.89,24.11-5.06-31.55-20.83,7.44Z"/>
                    <path class="cls-2" d="M112.59,170.13c-.1,0-.19-.05-.26-.12l-18.42-23.33c-.09-.11-.09-.27,0-.39,.09-.12,.24-.17,.38-.11l28.18,10.3c.1,.04,.17,.11,.2,.21,.03,.1,.01,.21-.05,.29l-9.77,13.02c-.06,.08-.16,.13-.26,.13h0Zm-17.45-22.95l17.44,22.09,9.25-12.34-26.69-9.76Z"/>
                    <path class="cls-2" d="M120.96,185.02c-.12,0-.23-.06-.28-.17l-8.37-14.89c-.06-.11-.05-.25,.02-.35l9.77-13.03c.09-.11,.24-.16,.37-.11,.13,.05,.22,.18,.21,.32l-1.4,27.91c0,.14-.11,.27-.25,.3-.02,0-.05,0-.07,0Zm-7.99-15.19l7.72,13.72,1.29-25.72-9,12Z"/>
                    <path class="cls-2" d="M120.96,185.02s-.07,0-.11-.02c-.14-.05-.23-.18-.22-.32l1.4-27.91c0-.14,.1-.26,.23-.3,.13-.04,.27,0,.36,.12l9.3,12.56c.08,.11,.09,.27,0,.38l-10.7,15.35c-.06,.09-.16,.14-.27,.14Zm1.68-27.31l-1.29,25.87,9.92-14.23-8.62-11.64Z"/>
                    <path class="cls-2" d="M131.66,169.67s-.03,0-.04,0c-.09-.01-.17-.06-.22-.13l-9.3-12.56c-.06-.09-.08-.2-.05-.3,.03-.1,.11-.18,.22-.21l39.17-11.49c.15-.04,.31,.02,.38,.16,.07,.14,.04,.31-.08,.4l-29.87,24.05c-.06,.05-.13,.07-.2,.07Zm-8.76-12.7l8.82,11.91,28.33-22.81-37.15,10.89Z"/>
                    <path class="cls-2" d="M38.35,196.93c-.14,0-.27-.1-.31-.24l-9.49-34.25c-.04-.16,.04-.32,.19-.39l9.61-4.09c.1-.04,.22-.03,.31,.03,.09,.06,.15,.16,.15,.27l-.12,38.34c0,.16-.12,.3-.28,.32-.01,0-.03,0-.04,0Zm-9.1-34.38l8.78,31.69,.11-35.48-8.89,3.79Z"/>
                    <path class="cls-2" d="M12.58,203.62c-.09,0-.18-.04-.24-.11-.08-.09-.1-.22-.06-.34l16.28-40.94c.05-.13,.18-.21,.32-.2,.14,0,.26,.1,.3,.24l9.49,34.25c.02,.08,.01,.17-.03,.25-.04,.08-.12,.13-.2,.15l-25.77,6.69s-.05,0-.08,0Zm16.23-40.24l-15.69,39.44,24.83-6.44-9.14-32.99Z"/>
                    <path class="cls-2" d="M28.86,162.69h0c-.14,0-.26-.09-.3-.21l-14.89-40.47c-.03-.07-.03-.14,0-.21l12.09-36.75c.05-.14,.17-.24,.33-.22,.15,0,.27,.12,.3,.27l10.54,57.53c.01,.06,0,.12-.02,.18l-7.75,19.69c-.05,.12-.17,.21-.3,.21Zm-14.54-40.8l14.55,39.56,7.41-18.81-10.3-56.18-11.66,35.43Z"/>
                    <path class="cls-2" d="M53.05,204.55c-.05,0-.1-.01-.15-.04l-14.7-7.62c-.11-.06-.18-.17-.18-.29l.03-9.59c0-.14,.09-.26,.21-.31,.13-.04,.27,0,.36,.1l14.67,17.21c.1,.12,.1,.29,0,.41-.06,.08-.16,.12-.25,.12Zm-14.37-8.14l13.05,6.76-13.02-15.28-.03,8.51Z"/>
                    <path class="cls-2" d="M53.05,204.55c-.09,0-.19-.04-.25-.11l-6.51-7.64c-.08-.1-.1-.24-.05-.35,.06-.12,.18-.19,.3-.18l46.98,1.36c.17,0,.3,.14,.32,.31,.01,.17-.11,.32-.27,.34l-40.47,6.28s-.03,0-.05,0Zm-5.79-7.62l5.92,6.94,36.78-5.71-42.7-1.23Z"/>
                    <path class="cls-2" d="M93.52,198.27h0l-16.75-.48c-.15,0-.28-.11-.31-.26-.03-.15,.05-.3,.19-.36l35.12-15.56c.15-.06,.32-.01,.41,.12,.09,.14,.06,.31-.06,.42l-18.37,16.05c-.06,.05-.14,.08-.21,.08Zm-15.3-1.09l15.18,.44,16.66-14.55-31.84,14.11Z"/>
                    <path class="cls-2" d="M95.5,189.49c-.1,0-.2-.05-.26-.13-.09-.12-.08-.29,.02-.41l17.09-19.36c.09-.1,.24-.14,.37-.09,.13,.05,.21,.18,.2,.32l-.7,12.1c0,.12-.08,.23-.19,.28l-16.39,7.26s-.09,.03-.13,.03Zm16.71-18.76l-15.48,17.53,14.84-6.58,.63-10.96Z"/>
                    <path class="cls-2" d="M16.93,192.68h0c-.14,0-.26-.09-.3-.22L3.74,153.94c-.02-.06-.02-.13,0-.2l9.92-32.41c.04-.13,.16-.23,.3-.23,.16,0,.27,.08,.31,.21l14.89,40.47c.03,.07,.03,.16,0,.23l-11.93,30.46c-.05,.12-.17,.21-.3,.21Zm-12.54-38.85l12.56,37.57,11.56-29.51-14.51-39.45-9.61,31.38Z"/>
                    <path class="cls-2" d="M4.05,154.16s-.03,0-.04,0c-.16-.02-.28-.15-.29-.3L0,95.55c0-.14,.07-.27,.2-.32l25.74-10.39c.12-.05,.25-.02,.34,.06,.09,.09,.13,.22,.09,.34l-12.09,36.28-9.92,32.4c-.04,.14-.17,.23-.31,.23ZM.67,95.75l3.59,56.29,9.4-30.7,11.87-35.62L.67,95.75Z"/>
                    <path class="cls-2" d="M.33,95.86c-.09,0-.17-.04-.24-.1-.09-.1-.11-.24-.06-.36L24.22,43.91c.05-.1,.14-.16,.24-.18,.1-.02,.21,.02,.29,.09l9.61,9.92c.08,.08,.11,.2,.08,.31l-8.06,31.17c-.03,.1-.1,.18-.19,.22L.45,95.83s-.08,.02-.12,.02ZM24.61,44.62L.97,94.92l24.82-10.02,7.98-30.83-9.16-9.45Z"/>
                    <path class="cls-2" d="M34.13,54.3c-.09,0-.17-.04-.23-.1l-9.61-9.92c-.07-.07-.1-.16-.09-.26,0-.1,.06-.18,.14-.24L78.6,7.19c.14-.09,.32-.07,.43,.06,.11,.13,.1,.32-.01,.44L34.36,54.2c-.06,.06-.15,.1-.23,.1h0Zm-9.11-10.2l9.11,9.4L76.44,9.44,25.02,44.11Z"/>
                    <path class="cls-2" d="M182.37,23.29s-.03,0-.05,0L78.74,7.78c-.16-.02-.28-.16-.28-.32,0-.16,.11-.3,.27-.32L118.42,0c.05-.01,.11,0,.17,.01l63.88,22.64c.16,.06,.25,.22,.21,.39-.04,.15-.17,.25-.32,.25ZM80.79,7.43l98.28,14.71L118.45,.66l-37.66,6.77Z"/>
                    <path class="cls-2" d="M182.37,23.29s-.07,0-.11-.02L118.37,.63c-.16-.06-.25-.23-.21-.39,.05-.16,.21-.27,.38-.23l55.82,11.47c.08,.02,.15,.06,.2,.13l8.06,11.16c.08,.12,.08,.27,0,.39-.06,.08-.16,.13-.26,.13ZM123.04,1.59l58.45,20.71-7.38-10.22L123.04,1.59Z"/>
                    <path class="cls-2" d="M221.01,88.29c-.11,0-.22-.06-.28-.16L182.09,23.13c-.08-.14-.05-.31,.07-.41,.12-.1,.3-.1,.42,0l47.76,40.01c.11,.09,.14,.23,.1,.36l-9.11,24.99c-.04,.12-.15,.2-.28,.21,0,0-.02,0-.03,0Zm-37.39-63.84l37.32,62.76,8.8-24.13-46.12-38.63Z"/>
                    <path class="cls-2" d="M230.12,63.3c-.07,0-.15-.03-.21-.08l-47.76-40.01-8.12-11.22c-.09-.13-.08-.3,.03-.42,.11-.11,.29-.13,.42-.04l32.72,22.48s.05,.04,.07,.06l23.1,28.69c.11,.13,.09,.32-.03,.44-.06,.06-.15,.09-.23,.09ZM175.67,13.13l6.96,9.64,45.16,37.82-20.99-26.06-31.13-21.39Z"/>
                    <path class="cls-2" d="M120.96,185.02s-.06,0-.1-.01l-9.07-2.79c-.14-.04-.24-.18-.23-.33l.7-12.09c0-.14,.11-.27,.25-.3,.14-.04,.29,.03,.36,.16l8.37,14.89c.07,.12,.05,.26-.03,.36-.06,.08-.16,.12-.25,.12Zm-8.73-3.35l8.05,2.48-7.43-13.21-.62,10.73Z"/>
                    <path class="cls-2" d="M102.8,206.32c-.06,0-.11-.01-.17-.04-.14-.08-.2-.25-.14-.4l9.09-24.09c.06-.16,.24-.24,.4-.2l9.07,2.79c.1,.03,.19,.12,.22,.22,.03,.11,0,.22-.06,.3l-18.16,21.3c-.06,.07-.15,.11-.25,.11Zm9.29-24.01l-8.32,22.06,16.63-19.5-8.31-2.55Z"/>
                    <path class="cls-2" d="M101.94,225.94s-.03,0-.05,0c-.17-.02-.29-.17-.28-.34l.86-19.63c0-.07,.03-.14,.08-.2l5.65-6.62c.1-.12,.26-.15,.4-.08,.13,.07,.2,.22,.17,.37l-6.51,26.25c-.04,.15-.17,.25-.32,.25Zm1.18-19.83l-.71,16.26,5.39-21.74-4.68,5.48Z"/>
                    <path class="cls-2" d="M109.27,241.69c-.12,0-.24-.07-.3-.19l-7.33-15.74c-.03-.07-.04-.14-.02-.22l1.49-5.99c.04-.14,.16-.25,.31-.25,.17,.03,.28,.1,.32,.24l5.85,21.74c.04,.16-.04,.33-.2,.39-.04,.01-.07,.02-.11,.02Zm-6.99-16.1l5.7,12.24-4.54-16.89-1.15,4.66Z"/>
                    <path class="cls-2" d="M102.8,206.32c-.08,0-.15-.03-.21-.08l-9.28-8.04c-.07-.06-.11-.15-.11-.25,0-.09,.04-.18,.11-.25l18.37-16.05c.11-.1,.28-.11,.4-.02,.12,.08,.17,.24,.12,.38l-9.09,24.09c-.04,.1-.12,.17-.22,.2-.03,0-.05,.01-.08,.01Zm-8.79-8.37l8.65,7.49,8.47-22.44-17.12,14.95Z"/>
                    <path class="cls-2" d="M101.94,225.94c-.08,0-.16-.03-.22-.08l-13.59-12.08c-.1-.09-.13-.22-.09-.35l5.17-15.59c.03-.1,.12-.18,.22-.21,.1-.03,.22,0,.3,.07l9.28,8.04c.08,.07,.12,.16,.11,.26l-.86,19.63c0,.13-.08,.24-.2,.29-.04,.02-.08,.03-.13,.03Zm-13.21-12.5l12.92,11.48,.83-18.79-8.8-7.62-4.94,14.92Z"/>
                    <path class="cls-2" d="M91.19,262.24c-.12,0-.23-.06-.29-.17l-22.1-40.47c-.04-.08-.05-.18-.02-.27,.03-.09,.1-.16,.18-.19l19.26-7.9c.11-.05,.25-.02,.34,.06l13.59,12.08c.09,.08,.13,.22,.1,.34l-10.75,36.29c-.04,.13-.15,.22-.28,.23-.01,0-.02,0-.03,0Zm-21.64-40.63l21.55,39.46,10.47-35.34-13.28-11.81-18.73,7.69Z"/>
                    <path class="cls-2" d="M69.09,221.77c-.09,0-.18-.04-.24-.1l-16.05-17.21c-.08-.09-.11-.21-.07-.33,.04-.11,.14-.2,.26-.22l40.47-6.28c.12-.02,.23,.02,.3,.11,.07,.09,.1,.21,.06,.31l-5.17,15.59c-.03,.09-.1,.16-.19,.2l-19.26,7.9s-.08,.02-.12,.02Zm-15.39-17.31l15.48,16.6,18.91-7.76,4.95-14.94-39.34,6.1Z"/>
                    <path class="cls-2" d="M12.11,220.6c-.07,0-.13-.02-.19-.06-.09-.06-.14-.17-.14-.28l.47-16.98c0-.14,.1-.27,.24-.31l25.77-6.69c.08-.02,.16-.01,.23,.03l14.7,7.62c.11,.06,.18,.18,.18,.31,0,.13-.09,.24-.21,.29l-40.94,16.05s-.08,.02-.12,.02Zm.78-17.05l-.45,16.24,39.81-15.61-13.95-7.23-25.41,6.6Z"/>
                    <path class="cls-2" d="M12.11,220.6c-.07,0-.13-.02-.19-.06-.09-.06-.14-.17-.14-.28l.47-16.98c0-.14,.1-.27,.24-.31l25.77-6.69c.08-.02,.16-.01,.23,.03l14.7,7.62c.11,.06,.18,.18,.18,.31,0,.13-.09,.24-.21,.29l-40.94,16.05s-.08,.02-.12,.02Zm.78-17.05l-.45,16.24,39.81-15.61-13.95-7.23-25.41,6.6Z"/>
                    <path class="cls-2" d="M37.69,238.75c-.07,0-.13-.02-.19-.06l-25.58-18.14c-.1-.07-.15-.19-.13-.3,.01-.12,.09-.22,.2-.26l40.94-16.05c.12-.05,.26-.02,.35,.08,.09,.1,.12,.24,.06,.36l-15.35,34.19c-.04,.09-.12,.16-.21,.18-.03,0-.06,.01-.09,.01Zm-24.9-18.38l24.77,17.56,14.86-33.1-39.63,15.54Z"/>
                    <path class="cls-2" d="M49.32,241.3s-.05,0-.07,0l-11.63-2.56c-.1-.02-.18-.08-.22-.17s-.05-.19,0-.28l15.35-34.19c.04-.1,.14-.17,.24-.19,.11-.02,.22,.02,.29,.1l16.05,17.21c.12,.13,.12,.33,0,.45l-19.77,19.54c-.06,.06-.14,.09-.23,.09Zm-11.17-3.12l11.07,2.43,19.42-19.19-15.5-16.62-14.99,33.38Z"/>
                    <path class="cls-2" d="M49.32,241.3c-.12,0-.23-.07-.29-.18-.06-.13-.04-.28,.06-.38l19.77-19.54c.07-.07,.17-.1,.27-.09,.1,.01,.19,.07,.24,.15l9.07,14.89c.06,.09,.06,.21,.02,.31-.05,.1-.14,.17-.24,.19l-28.84,4.65s-.03,0-.05,0Zm19.71-19.34l-18.75,18.53,27.36-4.41-8.6-14.12Z"/>
                    <path class="cls-2" d="M91.19,262.24c-.07,0-.14-.02-.2-.07l-28.88-23.03c-.1-.08-.14-.21-.11-.34,.03-.12,.14-.22,.26-.24l15.85-2.56c.14-.02,.28,.05,.34,.17l13.03,25.58c.07,.14,.03,.3-.08,.4-.06,.05-.13,.07-.21,.07Zm-28.1-23.15l27.13,21.63-12.24-24.03-14.89,2.4Z"/>
                    <path class="cls-2" d="M85.61,269.52s-.07,0-.1-.02l-7.44-2.48c-.09-.03-.17-.1-.2-.19l-8.14-21.69c-.05-.14,0-.29,.11-.38,.12-.09,.28-.08,.39,0l21.17,16.88c.14,.11,.16,.31,.06,.45l-5.58,7.29c-.06,.08-.16,.13-.26,.13Zm-7.19-3.07l7.08,2.36,5.25-6.85-20-15.94,7.67,20.44Z"/>
                    <path class="cls-2" d="M94.35,251.56c-.07,0-.14-.02-.19-.06-.11-.08-.16-.22-.12-.35l7.58-25.61c.04-.13,.15-.22,.29-.23,.14-.02,.26,.06,.32,.19l7.33,15.74c.07,.15,.02,.32-.12,.41l-14.92,9.87c-.05,.04-.12,.05-.18,.05Zm7.65-25.02l-7.09,23.93,13.94-9.22-6.85-14.71Z"/>
                    <path class="cls-2" d="M72.89,269.52c-.1,0-.19-.04-.25-.12l-3.72-4.65c-.08-.1-.09-.23-.04-.35l4.64-9.42c.06-.12,.18-.18,.31-.18,.13,0,.24,.09,.29,.21l4.35,11.59c.06,.16-.01,.34-.17,.41l-5.27,2.48s-.09,.03-.14,.03Zm-3.34-5.02l3.43,4.29,4.77-2.24-3.98-10.6-4.22,8.56Z"/>
                    <path class="cls-2" d="M98.93,273.6h-.02c-.15,0-.27-.11-.3-.26l-4.58-22.05c-.03-.13,.03-.26,.14-.34l14.92-9.87c.11-.08,.27-.07,.38,.01,.11,.08,.16,.23,.11,.36l-10.34,31.92c-.04,.14-.17,.23-.31,.23Zm-4.22-22.22l4.29,20.63,9.67-29.86-13.96,9.23Z"/>
                    <path class="cls-2" d="M98.93,273.6c-.1,0-.21-.05-.27-.14l-7.74-11.37c-.06-.08-.07-.18-.04-.28l3.16-10.68c.04-.14,.19-.23,.33-.23,.15,0,.27,.11,.31,.26l4.58,22.05c.03,.15-.05,.31-.19,.37-.04,.02-.08,.03-.13,.03Zm-7.39-11.75l6.74,9.89-3.98-19.18-2.75,9.29Z"/>
                    <path class="cls-2" d="M85.61,269.52c-.12,0-.22-.06-.28-.16-.06-.11-.05-.26,.02-.36l5.58-7.29c.06-.08,.15-.13,.27-.13,.1,0,.2,.06,.26,.14l4.17,6.13c.06,.09,.07,.22,.03,.32-.05,.1-.14,.17-.26,.19l-9.76,1.16s-.03,0-.04,0Zm5.57-7.06l-4.84,6.32,8.46-1-3.62-5.31Z"/>
                    <path class="cls-2" d="M98.93,273.6c-.07,0-.14-.02-.2-.07-.11-.08-.15-.23-.11-.36l10.34-31.92c.05-.16,.22-.26,.39-.22,.17,.04,.27,.2,.25,.37l-4.59,28.46c-.02,.09-.07,.18-.15,.23l-5.75,3.46c-.05,.03-.11,.05-.17,.05Zm9.34-28.11l-8.76,27.05,4.87-2.93,3.89-24.12Z"/>
                    <path class="cls-2" d="M108.17,274.33c-.09,0-.19-.04-.25-.12l-3.49-4.19c-.06-.07-.09-.17-.07-.26l4.59-28.46c.03-.17,.19-.28,.35-.27,.17,.02,.3,.16,.29,.34l-1.1,32.64c0,.14-.09,.25-.22,.3-.03,.01-.07,.02-.11,.02Zm-3.14-4.61l2.85,3.42,.9-26.64-3.75,23.22Z"/>
                    <path class="cls-2" d="M108.17,274.33c-.06,0-.12-.02-.18-.05-.1-.06-.15-.17-.15-.29l1.1-32.64c0-.14,.1-.27,.24-.3,.14-.04,.29,.02,.36,.15l5.41,9.15s.04,.1,.04,.15l.93,19.77c0,.13-.06,.25-.18,.31l-7.44,3.72s-.1,.03-.15,.03Zm1.39-31.84l-1.05,30.98,6.76-3.38-.92-19.48-4.8-8.12Z"/>
                    <path class="cls-2" d="M121.19,274.33c-.06,0-.13-.02-.18-.05l-5.58-3.72c-.09-.06-.14-.15-.14-.26l-.93-19.77c0-.13,.06-.25,.17-.3,.11-.06,.25-.05,.35,.03l7.21,5.58c.08,.06,.13,.16,.13,.27l-.7,17.91c0,.12-.07,.22-.18,.28-.05,.02-.1,.04-.15,.04Zm-5.26-4.23l4.96,3.31,.67-17.16-6.52-5.05,.89,18.9Z"/>
                    <path class="cls-2" d="M121.89,256.42c-.07,0-.14-.02-.2-.07l-7.21-5.58s-.06-.06-.08-.09l-5.41-9.15c-.07-.12-.06-.27,.03-.37,.09-.11,.23-.15,.36-.1l11.46,4.04c.12,.04,.2,.15,.22,.27l1.16,10.7c.01,.13-.05,.26-.16,.32-.05,.03-.1,.04-.16,.04Zm-6.96-6.13l6.56,5.07-1.06-9.73-10.42-3.67,4.92,8.33Z"/>
                    <path class="cls-2" d="M120.73,245.72s-.07,0-.11-.02l-11.46-4.04c-.1-.04-.18-.12-.21-.22l-1.98-7.37c-.03-.13,.01-.26,.12-.34,.1-.08,.25-.09,.36-.02l17.34,10.09c.11,.06,.17,.19,.16,.31-.01,.13-.1,.23-.22,.28l-3.89,1.32s-.07,.02-.1,.02Zm-11.19-4.61l11.19,3.94,3.11-1.06-16.03-9.33,1.73,6.44Z"/>
                    <path class="cls-2" d="M121.19,274.33s-.1-.01-.15-.03c-.11-.06-.18-.18-.18-.3l.7-17.91-1.16-10.65c-.02-.15,.07-.29,.22-.34l10.78-3.66c.11-.04,.23-.01,.32,.06,.09,.07,.13,.19,.11,.3l-5.09,28.09c-.01,.08-.06,.15-.12,.2l-5.23,4.18c-.06,.05-.13,.07-.2,.07Zm-.11-28.71l1.13,10.44-.67,17.25,4.58-3.66,4.97-27.42-10.01,3.4Z"/>
                    <path class="cls-2" d="M132.24,274.75c-.07,0-.14-.02-.2-.07l-5.81-4.6c-.09-.07-.14-.2-.12-.31l5.09-28.09c.01-.06,.04-.12,.09-.17l7.99-8.23c.09-.1,.23-.13,.36-.07,.12,.05,.2,.17,.2,.3v15.25s0,.06-.01,.09l-7.26,25.67c-.03,.1-.11,.19-.21,.22-.03,.01-.07,.02-.1,.02Zm-5.46-5.06l5.28,4.18,7.12-25.15v-14.41l-7.36,7.58-5.03,27.8Z"/>
                    <path class="cls-2" d="M124.62,244.4c-.11,0-.21-.05-.27-.15-.08-.13-.06-.29,.04-.4l13.18-13.72c.07-.07,.18-.11,.28-.1,.1,.01,.19,.08,.24,.17l1.7,3.15c.07,.13,.05,.28-.05,.38l-7.99,8.23s-.08,.06-.13,.08l-6.89,2.34s-.07,.02-.1,.02Zm13.11-13.5l-11.95,12.43,5.55-1.88,7.77-8-1.37-2.55Z"/>
                    <path class="cls-2" d="M139.5,233.83c-.12,0-.23-.06-.29-.17l-1.7-3.15c-.04-.07-.05-.16-.03-.24l2.52-9.14,2.34-5.9c.06-.16,.23-.24,.39-.19,.16,.05,.26,.2,.23,.37l-3.15,18.16c-.02,.14-.13,.24-.27,.27-.02,0-.04,0-.05,0Zm-1.35-3.51l1.19,2.2,2.45-14.12-1.16,2.94-2.47,8.98Z"/>
                    <path class="cls-2" d="M132.24,274.75c-.06,0-.13-.02-.18-.06-.12-.08-.17-.22-.13-.36l7.26-25.67c.04-.15,.2-.24,.35-.23,.16,.02,.28,.15,.28,.32l.48,19.85c0,.11-.05,.21-.13,.27l-7.75,5.81c-.06,.04-.13,.06-.2,.06Zm6.99-23.83l-6.42,22.67,6.84-5.13-.43-17.53Z"/>
                    <path class="cls-2" d="M143.86,270.63s-.09,0-.13-.03l-3.87-1.7c-.12-.05-.19-.16-.19-.29l-.48-19.85v-15.26c0-.16,.12-.3,.28-.32,.17-.02,.31,.07,.36,.23l5.33,17.92s.01,.07,.01,.11l-.97,18.89c0,.11-.06,.2-.15,.26-.05,.03-.11,.05-.17,.05Zm-3.55-2.24l3.25,1.42,.94-18.36-4.67-15.72v13.02l.48,19.64Z"/>
                    <path class="cls-2" d="M143.86,270.63c-.07,0-.15-.02-.2-.07-.08-.07-.13-.17-.12-.27l.97-18.89c0-.16,.13-.29,.28-.31,.16-.02,.31,.08,.35,.23l5.33,17.19c.03,.08,.02,.18-.03,.25s-.12,.13-.2,.16l-6.3,1.7s-.06,.01-.08,.01Zm1.2-17.37l-.85,16.61,5.54-1.49-4.68-15.12Z"/>
                    <path class="cls-2" d="M154.27,271.36c-.06,0-.11-.01-.17-.04l-4.12-2.42c-.07-.04-.12-.11-.15-.18l-5.33-17.19c-.02-.06-.02-.13,0-.19l10.65-34.62c.05-.16,.21-.25,.36-.23,.16,.03,.28,.17,.27,.33l-1.21,54.24c0,.12-.07,.22-.17,.28-.05,.03-.1,.04-.16,.04Zm-3.84-2.96l3.53,2.08,1.15-51.34-9.93,32.29,5.26,16.97Z"/>
                    <path class="cls-2" d="M144.83,251.75h0c-.14,0-.27-.09-.31-.23l-5.33-17.92s-.02-.1,0-.15l3.15-18.16c.03-.17,.19-.29,.36-.27l12.83,1.45c.1,.01,.18,.06,.24,.15,.05,.08,.07,.18,.04,.27l-10.65,34.62c-.04,.14-.17,.23-.31,.23Zm-4.99-18.26l5,16.81,10.22-33.22-12.14-1.37-3.08,17.78Z"/>
                    <path class="cls-2" d="M155.48,217.12s-.02,0-.04,0l-12.83-1.45c-.11-.01-.21-.08-.26-.19l-7.34-15.99s-.03-.1-.03-.16l.32-5.07c0-.13,.1-.25,.22-.29s.26,0,.35,.09l19.86,22.52c.09,.1,.11,.25,.04,.37-.06,.11-.17,.17-.29,.17Zm-12.61-2.08l11.81,1.34-18.78-21.29-.26,4.2,7.23,15.75Z"/>
                    <path class="cls-2" d="M135.32,199.23c-.08,0-.17-.03-.23-.09l-14.36-14.22c-.11-.11-.13-.29-.04-.42l2.7-3.87c.06-.08,.15-.13,.25-.14,.1,0,.2,.03,.26,.11l11.96,13.46c.06,.07,.09,.15,.08,.24l-.3,4.63c0,.13-.09,.24-.21,.28-.04,.01-.08,.02-.12,.02Zm-13.94-14.58l13.66,13.52,.25-3.78-11.6-13.05-2.31,3.31Z"/>
                    <path class="cls-2" d="M135.63,194.6c-.09,0-.18-.04-.24-.11l-11.96-13.46c-.1-.11-.11-.28-.02-.4l8-11.48c.06-.09,.18-.14,.29-.14,.11,0,.21,.07,.27,.17l8.32,15.49c.05,.09,.05,.2,0,.29l-4.36,9.44c-.05,.1-.14,.17-.25,.19-.02,0-.03,0-.05,0Zm-11.55-13.81l11.46,12.9,4.08-8.84-8-14.88-7.55,10.83Z"/>
                    <path class="cls-2" d="M155.48,217.12c-.09,0-.18-.04-.24-.11l-19.86-22.52c-.09-.1-.11-.23-.05-.35l4.36-9.44c.04-.1,.13-.16,.24-.18,.1-.02,.21,.01,.29,.09l7.75,7.51s.07,.08,.08,.14l7.75,24.46c.05,.15-.02,.31-.15,.38-.05,.03-.11,.04-.16,.04Zm-19.47-22.9l18.69,21.2-7.26-22.91-7.36-7.13-4.08,8.83Z"/>
                    <path class="cls-2" d="M173.64,213.73s-.06,0-.09-.01l-21.07-5.8c-.11-.03-.19-.11-.22-.22l-4.84-15.26c-.04-.12,0-.25,.09-.33,.09-.09,.22-.11,.34-.07l23.36,8.42c.11,.04,.19,.13,.21,.24l2.55,12.65c.02,.11-.01,.23-.1,.3-.06,.06-.14,.09-.22,.09Zm-20.82-6.4l20.39,5.62-2.41-11.95-22.57-8.13,4.58,14.47Z"/>
                    <path class="cls-2" d="M154.27,271.36c-.06,0-.12-.01-.17-.05-.1-.06-.16-.17-.16-.29l.66-29.54c0-.16,.13-.3,.29-.32,.17-.02,.31,.09,.35,.25l6.35,25.54c.04,.14-.03,.29-.15,.36l-7.01,4.01s-.11,.04-.16,.04Zm.93-27.43l-.59,26.53,6.29-3.6-5.7-22.93Z"/>
                    <path class="cls-2" d="M168.72,269.52s-.06,0-.09-.01l-7.44-2.17c-.11-.03-.2-.12-.23-.23l-6.35-25.54c-.04-.15,.04-.31,.18-.38,.14-.06,.31-.02,.4,.12l10.24,15.26s.03,.06,.04,.09l3.55,12.45c.03,.11,0,.24-.08,.32-.06,.06-.15,.09-.23,.09Zm-7.17-2.76l6.7,1.95-3.38-11.83-9.17-13.67,5.85,23.55Z"/>
                    <path class="cls-2" d="M165.17,257.07c-.11,0-.21-.05-.27-.14l-10.24-15.26c-.04-.06-.06-.12-.05-.19l.55-24.7c0-.15,.11-.28,.27-.31l18.16-3.39c.11-.02,.22,.01,.29,.09,.08,.08,.11,.19,.09,.29l-8.47,43.34c-.03,.13-.13,.23-.26,.26-.02,0-.04,0-.06,0Zm-9.91-15.68l9.74,14.52,8.23-42.1-17.43,3.25-.54,24.33Z"/>
                    <path class="cls-2" d="M155.48,217.12c-.14,0-.27-.09-.31-.23l-3.08-9.71c-.04-.11,0-.24,.08-.33,.09-.09,.21-.12,.33-.08l21.24,6.32c.14,.04,.24,.18,.23,.33,0,.15-.12,.28-.27,.3l-18.16,3.39s-.04,0-.06,0Zm-2.58-9.55l2.8,8.85,16.55-3.09-19.35-5.76Z"/>
                    <path class="cls-2" d="M166.73,249.06c-.07,0-.15-.02-.21-.07-.09-.08-.14-.2-.11-.31l6.91-35.33c.03-.13,.13-.24,.27-.26,.13-.02,.27,.04,.34,.16l14.77,26.39c.05,.08,.05,.18,.02,.27-.03,.09-.1,.16-.18,.19l-21.68,8.93s-.08,.02-.12,.02Zm7.06-34.72l-6.62,33.86,20.78-8.56-14.16-25.3Z"/>
                    <path class="cls-2" d="M173.64,213.73c-.05,0-.11-.01-.15-.04-.09-.05-.15-.13-.16-.22l-2.55-12.65c-.02-.09,0-.19,.06-.26,.06-.08,.15-.12,.24-.13l24.56-1.15c.05,0,.11,0,.15,.03l5.76,2.69c.12,.06,.19,.17,.19,.3,0,.13-.08,.25-.2,.29l-27.77,11.11s-.08,.02-.12,.02Zm-2.15-12.67l2.39,11.89,26.71-10.69-5-2.33-24.1,1.13Z"/>
                    <path class="cls-2" d="M201.41,202.62s-.09,0-.14-.03l-5.76-2.69c-.15-.07-.23-.25-.17-.41l9.21-24.95c.02-.06,.06-.11,.11-.15l7.29-5.37c.12-.08,.27-.09,.38,0,.11,.08,.16,.23,.12,.36l-10.75,33.01c-.03,.09-.09,.16-.18,.2-.04,.02-.09,.03-.13,.03Zm-5.35-3.18l5.15,2.4,10.32-31.69-6.4,4.71-9.07,24.57Z"/>
                    <path class="cls-2" d="M204.87,174.99s-.05,0-.07,0c-.09-.02-.17-.08-.22-.17l-8.48-16.41c-.06-.12-.04-.26,.05-.37,.09-.1,.23-.14,.36-.09l14.82,5.51c.11,.04,.19,.14,.21,.25l.95,5.53c.02,.12-.03,.24-.13,.32l-7.29,5.37c-.06,.04-.12,.06-.19,.06Zm-7.81-16.14l7.92,15.32,6.82-5.03-.89-5.15-13.86-5.15Z"/>
                    <path class="cls-2" d="M211.21,164.08s-.02,0-.03,0c-.15-.01-.27-.13-.29-.27l-5.27-32.87c-.02-.12,.03-.25,.13-.32l22.99-16.37c.12-.08,.27-.08,.39,0,.11,.09,.16,.24,.11,.37l-17.71,49.24c-.05,.13-.17,.22-.31,.22Zm-4.92-33.05l5.04,31.43,16.93-47.07-21.97,15.65Z"/>
                    <path class="cls-2" d="M205.93,131.21c-.07,0-.14-.02-.2-.07-.11-.09-.16-.23-.11-.37l15.08-42.93c.05-.13,.17-.23,.32-.22,.14,0,.26,.1,.3,.23l7.91,26.56c.04,.13,0,.28-.12,.36l-22.99,16.37c-.06,.04-.12,.06-.19,.06Zm15.05-42.2l-14.4,41.01,21.96-15.64-7.55-25.37Z"/>
                    <path class="cls-2" d="M228.92,114.84s-.04,0-.06,0c-.12-.02-.22-.11-.25-.23l-7.91-26.56c-.02-.07-.02-.14,0-.2l9.11-24.99c.05-.13,.15-.22,.32-.21,.14,0,.26,.1,.3,.24l10.02,37.26c.03,.1,0,.2-.06,.29l-11.22,14.28c-.06,.08-.16,.12-.26,.12Zm-7.57-26.87l7.7,25.85,10.73-13.66-9.71-36.11-8.72,23.92Z"/>
                    <path class="cls-2" d="M211.21,164.08c-.1,0-.2-.05-.26-.13-.06-.09-.08-.2-.04-.3l17.71-49.24s.03-.06,.05-.09l11.22-14.28c.09-.11,.24-.15,.37-.1,.13,.05,.22,.19,.21,.33l-4.76,62.58c-.01,.16-.15,.29-.31,.3l-24.17,.95s0,0-.01,0Zm18-49.41l-17.53,48.74,23.4-.92,4.66-61.22-10.53,13.4Z"/>
                    <path class="cls-2" d="M224.39,200.14c-.13,0-.25-.08-.3-.2l-12.23-30.53-.97-5.59c-.02-.09,0-.19,.07-.26,.06-.07,.15-.12,.24-.12l24.17-.95c.11-.01,.21,.04,.27,.13,.06,.08,.08,.19,.06,.29l-10.99,37.01c-.04,.13-.16,.23-.3,.23h-.02Zm-12.8-36.07l.89,5.16,11.86,29.6,10.6-35.68-23.35,.92Z"/>
                    <path class="cls-2" d="M201.41,202.62c-.1,0-.19-.04-.25-.12-.07-.09-.09-.2-.06-.31l10.75-33.01c.04-.13,.16-.22,.3-.22,.14-.03,.26,.08,.31,.2l12.23,30.53c.04,.09,.03,.2-.02,.29-.05,.09-.14,.14-.24,.16l-22.98,2.48s-.02,0-.03,0Zm10.78-32.38l-10.31,31.67,22.05-2.38-11.73-29.3Z"/>
                    <path class="cls-2" d="M222.03,230.51c-.1,0-.2-.05-.26-.13l-20.62-27.89c-.07-.09-.08-.22-.04-.32,.05-.11,.15-.18,.26-.19l22.98-2.48c.15-.03,.29,.07,.34,.22l4.42,12.97c.03,.07,.02,.15,0,.22l-6.78,17.39c-.04,.11-.14,.19-.26,.2-.01,0-.03,0-.04,0Zm-20.02-27.95l19.93,26.96,6.52-16.73-4.3-12.61-22.15,2.39Z"/>
                    <path class="cls-2" d="M222.03,230.51s-.07,0-.11-.02l-48.39-16.78c-.13-.04-.22-.16-.22-.3,0-.14,.08-.26,.2-.31l27.77-11.11c.14-.05,.29,0,.38,.11l20.62,27.89c.09,.11,.09,.27,0,.39-.06,.09-.16,.13-.26,.13Zm-47.46-17.12l46.57,16.15-19.84-26.84-26.73,10.69Z"/>
                    <path class="cls-2" d="M202.57,242.6s-.04,0-.06,0l-14.16-2.47c-.1-.02-.18-.08-.23-.16l-14.77-26.39c-.07-.12-.05-.26,.03-.37,.09-.1,.23-.14,.36-.1l48.39,16.78c.12,.04,.2,.15,.22,.27,.01,.13-.04,.25-.15,.31l-19.46,12.09c-.05,.03-.11,.05-.17,.05Zm-13.95-3.09l13.89,2.42,18.77-11.66-46.93-16.27,14.28,25.51Z"/>
                  </g>
                  <path class="cls-2" d="M38.22,289.33c-.16,0-.3-.12-.32-.28l-8.85-56.49c-.02-.13,.04-.26,.15-.33,.11-.07,.25-.06,.36,.01l8.32,5.9c.08,.06,.14,.16,.14,.26l.53,50.58c0,.17-.13,.31-.3,.33,0,0-.02,0-.03,0Zm-8.41-56.1l8.04,51.29-.48-45.93-7.56-5.36Z"/>
                  <path class="cls-2" d="M38.22,289.33c-.06,0-.11-.01-.16-.04-.1-.06-.16-.16-.16-.28l-.53-50.58c0-.1,.04-.19,.12-.26,.08-.06,.18-.09,.28-.07l11.63,2.56c.13,.03,.23,.14,.25,.28l5.1,38.8c.02,.13-.05,.26-.16,.33l-16.2,9.23s-.11,.04-.16,.04Zm-.2-50.5l.52,49.62,15.53-8.84-5.04-38.35-11.01-2.42Z"/>
                  <path class="cls-2" d="M72.27,316.04c-.12,0-.24-.07-.29-.18l-17.85-35.94s-.03-.07-.03-.1l-5.1-38.8c-.02-.17,.09-.33,.25-.36,.17-.04,.33,.06,.38,.22l22.95,74.74c.05,.16-.03,.34-.19,.4-.04,.02-.08,.02-.12,.02Zm-17.53-36.36l16.05,32.32-20.64-67.21,4.59,34.89Z"/>
                  <path class="cls-2" d="M62.28,283.5c-.14,0-.27-.09-.31-.23l-12.96-42.2c-.03-.09-.01-.19,.03-.27,.05-.08,.13-.13,.22-.15l6.19-1c.16-.02,.32,.07,.37,.23l7.14,25.5s.01,.06,.01,.1l-.38,17.7c0,.16-.12,.29-.28,.32-.02,0-.03,0-.05,0Zm-12.53-42.26l12.25,39.9,.33-15.63-7.05-25.17-5.54,.89Z"/>
                  <path class="cls-2" d="M71.9,315.3c-.14,0-.27-.09-.31-.23l-9.62-31.8s-.01-.07-.01-.1l.38-17.7c0-.14,.1-.27,.24-.31,.14-.04,.28,.02,.36,.14l8.99,13.96c.03,.05,.05,.11,.05,.17l.25,35.54c0,.16-.12,.3-.28,.32-.02,0-.03,0-.05,0Zm-9.3-32.17l8.96,29.59-.23-33.19-8.37-12.98-.36,16.58Z"/>
                  <path class="cls-2" d="M42.81,319.14c-.12,0-.23-.06-.29-.17l-8.99-16.75c-.04-.08-.05-.17-.02-.26l4.4-13.07c.03-.08,.08-.14,.15-.18l16.2-9.23c.12-.07,.26-.05,.36,.03,.1,.08,.15,.22,.11,.35l-11.61,39.04c-.04,.13-.15,.22-.28,.23-.01,0-.02,0-.03,0Zm-8.64-17.1l8.55,15.93,11.16-37.51-15.39,8.76-4.32,12.82Z"/>
                  <path class="cls-2" d="M56.77,321.31s-.03,0-.05,0l-13.96-2.17c-.09-.01-.17-.07-.23-.15-.05-.08-.06-.18-.04-.27l11.61-39.04c.04-.13,.15-.22,.28-.23,.13-.01,.26,.06,.32,.18l17.48,35.2c.04,.08,.04,.18,.01,.26-.03,.09-.1,.15-.18,.19l-15.14,6.01s-.08,.02-.12,.02Zm-13.54-2.76l13.5,2.1,14.73-5.85-16.95-34.14-11.27,37.89Z"/>
                  <path class="cls-2" d="M100.8,356.05c-.06,0-.12-.02-.18-.05l-26.67-17.37-17.42-17.41c-.08-.08-.11-.19-.09-.3,.02-.11,.1-.2,.2-.24l15.14-6.01c.14-.05,.3,0,.39,.11l28.9,40.75c.09,.13,.08,.3-.03,.41-.06,.07-.15,.1-.23,.1Zm-43.46-34.94l17.02,17.02,25.19,16.39-27.76-39.15-14.44,5.74Z"/>
                  <path class="cls-2" d="M71.91,315.3s-.02,0-.03,0c-.17-.02-.29-.16-.29-.32l-.25-35.54c0-.16,.11-.29,.26-.32,.15-.03,.3,.05,.37,.19l5.27,12.09c.03,.06,.03,.13,.02,.2l-5.02,23.45c-.03,.15-.17,.26-.32,.26Zm.08-34.28l.22,30.98,4.38-20.44-4.59-10.54Z"/>
                  <path class="cls-2" d="M86.77,336.26c-.1,0-.2-.05-.27-.14l-14.86-20.96c-.05-.07-.07-.17-.05-.26l5.02-23.45c.02-.11,.11-.21,.22-.24,.11-.03,.23,0,.32,.07l8.06,7.44c.06,.06,.1,.14,.1,.22l1.78,36.96c0,.14-.08,.28-.22,.32-.03,.01-.07,.02-.11,.02Zm-14.51-21.35l14.14,19.93-1.72-35.71-7.55-6.97-4.87,22.75Z"/>
                  <path class="cls-2" d="M86.77,336.26s-.04,0-.06,0c-.15-.03-.25-.15-.26-.3l-1.78-36.96c0-.09,.03-.18,.09-.24,.06-.06,.15-.1,.24-.1h4.03c.07,0,.13,.02,.19,.06l11.47,8.06c.13,.09,.17,.26,.11,.41l-13.73,28.9c-.05,.12-.17,.19-.29,.19Zm-1.44-36.96l1.7,35.32,13.05-27.48-11.17-7.85h-3.59Z"/>
                  <path class="cls-2" d="M100.8,356.05c-.1,0-.2-.05-.27-.14l-14.04-19.79c-.07-.1-.08-.22-.03-.33l13.73-28.9c.05-.11,.16-.18,.28-.19,.11,0,.23,.05,.29,.16l25.12,41.25c.05,.09,.06,.19,.03,.29-.04,.09-.11,.17-.21,.2l-24.81,7.44s-.06,.01-.09,.01Zm-13.66-20.15l13.79,19.45,24.18-7.25-24.59-40.37-13.39,28.18Z"/>
                  <path class="cls-2" d="M125.61,348.61c-.11,0-.22-.06-.28-.16l-25.12-41.25c-.07-.12-.06-.28,.03-.39,.09-.11,.25-.14,.38-.08l23.57,10.85c.11,.05,.18,.16,.19,.28l1.55,30.39c0,.15-.09,.28-.23,.33-.03,.01-.06,.01-.1,.01Zm-24.29-40.83l23.9,39.24-1.48-28.91-22.42-10.33Z"/>
                  <path class="cls-2" d="M125.61,348.61s-.05,0-.08,0c-.14-.04-.24-.16-.25-.3l-1.55-30.39c0-.15,.09-.29,.23-.33l24.19-7.13c.12-.04,.27,0,.35,.11,.08,.11,.09,.25,.02,.37l-22.64,37.52c-.06,.1-.17,.16-.28,.16Zm-1.21-30.48l1.48,29.07,21.66-35.9-23.14,6.82Z"/>
                  <path class="cls-2" d="M124.06,318.21s-.09,0-.14-.03l-23.57-10.85c-.14-.07-.22-.23-.18-.38s.18-.26,.34-.24l47.76,3.72c.16,.01,.28,.13,.3,.29,.02,.16-.08,.3-.23,.35l-24.19,7.13s-.06,.01-.09,.01Zm-21.78-10.71l21.8,10.04,22.38-6.6-44.18-3.44Z"/>
                  <path class="cls-2" d="M148.56,352.95s-.04,0-.06,0l-22.95-4.34c-.1-.02-.19-.09-.24-.19-.04-.1-.04-.21,.02-.3l22.64-37.52c.08-.13,.22-.18,.37-.15,.14,.04,.24,.17,.24,.31l.31,41.87c0,.1-.04,.19-.12,.25-.06,.05-.13,.08-.21,.08Zm-22.43-4.9l22.1,4.18-.3-40.32-21.8,36.14Z"/>
                  <path class="cls-2" d="M100.8,356.05c-.16,0-.29-.11-.32-.27-.03-.16,.07-.32,.23-.37l24.81-7.44s.1-.02,.15,0l22.95,4.34c.16,.03,.27,.18,.26,.34,0,.16-.14,.29-.3,.31l-47.76,3.1h-.02Zm24.83-7.43l-21.99,6.6,42.34-2.75-20.34-3.85Z"/>
                  <path class="cls-2" d="M148.56,352.95s-.04,0-.07,0c-.15-.03-.26-.16-.26-.32l-.31-41.87c0-.1,.04-.2,.12-.26l29.77-23.57c.12-.09,.29-.09,.4,0,.12,.09,.16,.25,.1,.39l-29.46,65.43c-.05,.12-.17,.19-.3,.19Zm.02-42.04l.3,40.22,28.3-62.86-28.6,22.64Z"/>
                  <path class="cls-2" d="M148.56,352.95c-.07,0-.13-.02-.19-.06-.13-.09-.17-.26-.11-.4l29.46-65.43c.07-.15,.22-.22,.38-.18,.15,.04,.26,.19,.24,.35l-4.34,40.94c0,.08-.04,.15-.1,.2l-25.12,24.5c-.06,.06-.14,.09-.23,.09Zm28.92-63.77l-27.92,62.01,23.81-23.22,4.11-38.8Z"/>
                  <path class="cls-2" d="M148.56,352.95c-.09,0-.19-.04-.25-.12-.11-.13-.1-.32,.02-.44l25.12-24.5c.1-.1,.25-.12,.38-.06,.12,.06,.19,.2,.17,.34l-1.24,8.06c-.01,.09-.06,.17-.14,.22l-23.88,16.44c-.06,.04-.12,.06-.18,.06Zm24.65-23.91l-21.69,21.15,20.61-14.19,1.07-6.96Z"/>
                  <path class="cls-2" d="M172.44,336.51c-.05,0-.1-.01-.15-.04-.12-.06-.19-.2-.17-.34l1.24-8.06c.01-.09,.07-.18,.15-.23l20.66-12.56c.14-.08,.33-.05,.43,.08,.1,.13,.09,.32-.04,.43l-21.9,20.62c-.06,.06-.14,.09-.22,.09Zm1.54-8.19l-1.07,6.98,18.95-17.85-17.87,10.87Z"/>
                  <path class="cls-2" d="M173.68,328.45c-.06,0-.12-.02-.17-.05-.1-.07-.16-.19-.15-.31l4.34-40.94c.01-.14,.12-.26,.26-.28,.14-.03,.28,.04,.35,.16l16.31,28.38c.09,.15,.04,.35-.11,.44l-20.66,12.56c-.05,.03-.11,.05-.17,.05Zm4.56-40.23l-4.17,39.28,19.82-12.05-15.66-27.23Z"/>
                  <path class="cls-2" d="M173.68,328.45c-.06,0-.12-.02-.17-.05-.1-.07-.16-.19-.15-.31l4.34-40.94c.01-.14,.12-.26,.26-.28,.14-.03,.28,.04,.35,.16l16.31,28.38c.09,.15,.04,.35-.11,.44l-20.66,12.56c-.05,.03-.11,.05-.17,.05Zm4.56-40.23l-4.17,39.28,19.82-12.05-15.66-27.23Z"/>
                  <path class="cls-2" d="M183.32,296.44c-.11,0-.22-.06-.28-.16l-5.29-8.92c-.04-.07-.06-.15-.04-.24l8.99-41.56c.04-.17,.2-.27,.36-.25,.17,.02,.29,.18,.28,.35l-3.7,50.48c-.01,.14-.11,.26-.25,.29-.02,0-.05,0-.07,0Zm-4.95-9.31l4.7,7.92,3.29-44.81-7.98,36.89Z"/>
                  <path class="cls-2" d="M183.32,296.44s-.04,0-.07,0c-.16-.03-.27-.18-.26-.34l3.7-50.48c0-.14,.11-.26,.26-.29l15.56-3.36c.12-.03,.24,.01,.31,.1,.08,.09,.1,.21,.06,.32l-19.26,53.84c-.05,.13-.17,.22-.31,.22Zm4.01-50.54l-3.51,47.85,18.25-51.03-14.74,3.18Z"/>
                  <path class="cls-2" d="M194.34,315.89c-.12,0-.23-.06-.28-.16l-11.02-19.45c-.05-.08-.06-.18-.02-.27l19.26-53.84c.05-.15,.19-.23,.35-.21,.15,.02,.27,.15,.28,.31l1.82,34.71s0,.07-.01,.1l-10.05,38.58c-.03,.13-.14,.22-.27,.24-.01,0-.03,0-.04,0Zm-10.67-19.81l10.55,18.62,9.83-37.75-1.73-33.04-18.66,52.17Z"/>
                  <path class="cls-2" d="M204.39,277.31s-.02,0-.03,0c-.16-.01-.29-.15-.3-.31l-1.82-34.71c0-.12,.05-.23,.15-.29l11.89-7.39c.11-.07,.26-.06,.36,.01,.11,.08,.16,.21,.13,.34l-10.08,42.1c-.04,.15-.17,.25-.32,.25Zm-1.48-34.86l1.69,32.27,9.37-39.14-11.06,6.87Z"/>
                  <path class="cls-2" d="M187.02,245.96s-.09,0-.13-.03l-6.28-2.67c-.12-.05-.2-.17-.2-.3,0-.13,.08-.25,.2-.3l7.67-3.16c.06-.02,.12-.03,.18-.02l14.16,2.47c.15,.03,.27,.16,.27,.31,0,.16-.1,.29-.26,.32l-15.56,3.36s-.05,0-.07,0Zm-5.44-2.99l5.47,2.32,13.82-2.99-12.42-2.17-6.87,2.83Z"/>
                  <path class="cls-2" d="M178.02,287.51s-.03,0-.04,0c-.17-.02-.29-.17-.28-.34l2.71-44.22c0-.11,.06-.2,.15-.26,.09-.05,.2-.06,.3-.02l6.28,2.67c.14,.06,.22,.22,.19,.37l-8.99,41.56c-.03,.15-.17,.26-.32,.26Zm3.01-44.07l-2.42,39.49,8.03-37.11-5.61-2.38Z"/>
                  <path class="cls-2" d="M148.25,311.08c-.08,0-.17-.03-.23-.09-.12-.12-.13-.3-.03-.43l30.8-40.27c.09-.11,.24-.16,.37-.11,.13,.05,.22,.18,.21,.33l-1.02,16.7c0,.09-.05,.18-.12,.24l-29.77,23.57c-.06,.05-.13,.07-.2,.07Zm30.41-39.55l-28.56,37.35,27.61-21.86,.95-15.49Z"/>
                  <path class="cls-2" d="M148.25,311.08s-.02,0-.03,0l-15.46-1.2c-.15-.01-.27-.12-.3-.27s.05-.29,.19-.35l25.11-11.41c.13-.06,.3-.02,.39,.09,.09,.12,.1,.28,0,.4l-9.65,12.62c-.06,.08-.16,.13-.26,.13Zm-14.17-1.76l14.02,1.09,8.75-11.44-22.77,10.35Z"/>
                </g>
                <path class="cls-2" d="M194.34,315.89c-.09,0-.17-.03-.23-.1-.08-.08-.11-.2-.08-.31l10.1-39.42c.04-.14,.16-.24,.31-.24,.15-.02,.28,.09,.32,.23l7.34,23.18c.03,.09,.02,.19-.03,.27l-8.33,13.92c-.04,.07-.12,.13-.2,.15l-9.12,2.33s-.05,0-.08,0Zm10.14-38.57l-9.69,37.79,8.45-2.16,8.19-13.68-6.95-21.95Z"/>
              </g>
              <path class="cls-2" d="M76.35,282.09c-.08,0-.16-.03-.23-.09l-5.07-4.87c-.08-.08-.12-.19-.09-.3l1.62-7.7c.02-.12,.11-.21,.22-.24,.11-.04,.24,0,.32,.08l2.96,2.82c.06,.06,.1,.14,.1,.22l.5,9.75c0,.13-.07,.26-.19,.31-.04,.02-.09,.03-.14,.03Zm-4.72-5.31l4.35,4.18-.45-8.8-2.44-2.33-1.46,6.95Z"/>
              <path class="cls-2" d="M75.85,272.34c-.08,0-.16-.03-.22-.09l-2.96-2.82c-.08-.07-.11-.18-.1-.29,.02-.11,.09-.2,.18-.24l5.27-2.48c.12-.06,.27-.03,.37,.06,.1,.09,.13,.24,.07,.36l-2.31,5.3c-.04,.1-.13,.17-.23,.19-.02,0-.04,0-.06,0Zm-2.39-3.05l2.28,2.17,1.78-4.08-4.06,1.91Z"/>
              <path class="cls-2" d="M81.62,285.77c-.07,0-.13-.02-.19-.06l-5.27-3.68c-.08-.06-.13-.15-.14-.25l-.5-9.75s0-.1,.03-.15l2.31-5.3c.05-.11,.15-.18,.26-.19,.11-.01,.23,.04,.3,.13l3.06,4.21c.04,.05,.06,.12,.06,.18l.4,14.52c0,.12-.06,.24-.17,.3-.05,.03-.1,.04-.15,.04Zm-4.96-4.18l4.61,3.22-.38-13.78-2.67-3.67-2.05,4.71,.49,9.51Z"/>
              <path class="cls-2" d="M81.23,271.25c-.1,0-.2-.05-.26-.13l-3.06-4.21c-.08-.11-.08-.27,0-.38,.08-.11,.23-.16,.37-.12l7.44,2.48c.13,.04,.22,.16,.22,.3,0,.14-.08,.26-.21,.31l-4.38,1.73s-.08,.02-.12,.02Zm-2.2-3.9l2.31,3.18,3.31-1.31-5.63-1.88Z"/>
              <path class="cls-2" d="M86.23,287.12s-.06,0-.09-.01l-4.6-1.34c-.14-.04-.23-.16-.23-.3l-.4-14.52c0-.14,.08-.26,.21-.31l4.38-1.73c.1-.04,.21-.03,.3,.03,.09,.06,.14,.16,.15,.26l.62,17.59c0,.1-.04,.2-.13,.27-.06,.04-.13,.07-.2,.07Zm-4.28-1.91l3.94,1.15-.59-16.68-3.74,1.47,.39,14.06Z"/>
              <path class="cls-2" d="M90.96,272.7c-.06,0-.11-.01-.17-.05l-5.35-3.18c-.12-.07-.18-.21-.15-.35,.03-.14,.14-.24,.28-.26l9.76-1.16c.14-.02,.27,.06,.33,.18,.06,.13,.03,.28-.06,.37l-4.41,4.34c-.06,.06-.15,.09-.23,.09Zm-4.36-3.29l4.31,2.56,3.55-3.49-7.86,.93Z"/>
              <path class="cls-2" d="M89.91,287.24h-.01l-3.69-.12c-.17,0-.31-.14-.31-.31l-.62-17.59c0-.12,.06-.23,.16-.29,.1-.06,.23-.06,.33,0l5.35,3.18c.11,.06,.17,.18,.16,.3l-1.05,14.54c-.01,.17-.15,.3-.32,.3Zm-3.37-.77l3.07,.1,1.01-14.02-4.66-2.77,.59,16.69Z"/>
              <path class="cls-2" d="M97.7,288.29s-.03,0-.05,0c-.17-.03-.29-.18-.27-.35l1.23-14.68c0-.1,.07-.2,.16-.25l5.75-3.46c.14-.08,.31-.05,.41,.06,.1,.12,.11,.29,0,.42l-3.98,4.98-2.93,13.03c-.03,.15-.17,.25-.32,.25Zm1.54-14.82l-.82,9.81,1.91-8.49s.03-.09,.06-.13l2.9-3.62-4.05,2.43Z"/>
              <path class="cls-2" d="M107.78,291.54s-.02,0-.03,0c-.17-.02-.3-.16-.29-.33l.39-17.21c0-.12,.07-.23,.18-.28l7.44-3.72c.14-.07,.32-.03,.41,.1,.09,.13,.07,.31-.04,.42l-4.81,4.58-2.93,16.18c-.03,.16-.16,.27-.32,.27Zm.71-17.33l-.29,12.86,2.21-12.19c.01-.07,.05-.13,.1-.18l3.31-3.15-5.32,2.66Z"/>
              <path class="cls-2" d="M119.57,293.4s-.03,0-.05,0c-.17-.02-.29-.18-.28-.35l1.63-19.07c0-.09,.05-.17,.12-.23l5.23-4.18c.13-.1,.31-.1,.42,.02,.12,.11,.14,.29,.05,.42l-3.26,4.83-3.55,18.31c-.03,.16-.17,.26-.32,.26Zm1.94-19.23l-1.1,12.85,2.4-12.38s.03-.08,.05-.12l2.1-3.11-3.45,2.76Z"/>
              <path class="cls-2" d="M133.21,290.69h0c-.17,0-.31-.13-.32-.31l-.98-15.94c0-.11,.04-.21,.13-.28l7.75-5.81c.13-.1,.32-.08,.44,.04,.11,.12,.11,.31,0,.44l-5.69,6.36-1,15.2c-.01,.17-.15,.3-.33,.3Zm-.64-16.11l.65,10.65,.67-10.2c0-.07,.03-.14,.08-.2l3.57-3.99-4.97,3.73Z"/>
              <path class="cls-2" d="M143.41,288.29s-.02,0-.03,0c-.17-.01-.3-.16-.3-.33l.45-17.65c0-.14,.1-.27,.24-.31l6.3-1.7c.15-.04,.31,.03,.38,.17,.07,.14,.03,.31-.09,.4l-4.42,3.46-2.2,15.68c-.02,.16-.16,.28-.32,.28Zm.77-17.73l-.3,11.71,1.43-10.15c.01-.08,.06-.16,.12-.21l3.27-2.56-4.51,1.22Z"/>
              <path class="cls-2" d="M159.96,271.77s-.02,0-.02,0l-5.69-.41c-.14,0-.26-.11-.29-.25-.03-.14,.03-.28,.16-.35l7.01-4.01c.08-.04,.17-.06,.25-.03l7.44,2.17c.14,.04,.24,.17,.23,.32,0,.15-.1,.27-.24,.31l-8.76,2.25s-.05,0-.08,0Zm-4.6-.99l4.57,.33,7.56-1.94-6.17-1.8-5.96,3.41Z"/>
              <path class="cls-2" d="M152.21,287.16s-.04,0-.06,0c-.17-.03-.28-.19-.26-.36l2.06-15.8c.02-.17,.16-.3,.35-.28l2.1,.15c.1,0,.19,.06,.24,.14,.06,.08,.07,.18,.05,.27l-4.16,15.64c-.04,.15-.17,.24-.31,.24Zm2.34-15.77l-1.37,10.54,2.77-10.43-1.4-.1Z"/>
              <path class="cls-2" d="M152.21,287.16c-.07,0-.15-.02-.2-.07-.1-.08-.14-.21-.11-.34l4.16-15.64c.04-.15,.16-.25,.34-.24l3.59,.26c.09,0,.18,.05,.23,.12,.06,.07,.08,.17,.06,.26l-2.21,12.56c-.02,.1-.08,.19-.17,.23l-5.54,2.82s-.1,.04-.15,.04Zm4.4-15.62l-3.9,14.68,4.74-2.42,2.12-12.04-2.96-.22Z"/>
              <path class="cls-2" d="M163.49,281.19s-.08,0-.12-.02c-.12-.05-.2-.16-.2-.29l-.35-9.03c0-.13,.07-.25,.19-.31l5.58-2.64c.11-.05,.25-.04,.35,.04,.1,.08,.14,.21,.11,.33l-2.34,8.9c-.02,.06-.05,.11-.09,.15l-2.89,2.77c-.06,.06-.14,.09-.23,.09Zm-.02-9.15l.32,8.09,2.3-2.2,2.14-8.14-4.76,2.25Z"/>
              <path class="cls-2" d="M76.35,282.09s-.1-.01-.14-.03l-4.7-2.34c-.1-.05-.16-.14-.18-.24l-.38-2.54c-.02-.14,.05-.27,.17-.34,.12-.06,.27-.04,.38,.06l5.07,4.87c.12,.11,.13,.29,.04,.42-.06,.09-.16,.14-.27,.14Zm-4.4-2.88l2.64,1.31-2.85-2.74,.21,1.43Z"/>
              <path class="cls-2" d="M76.92,291.85c-.13,0-.25-.07-.3-.2l-5.27-12.09c-.05-.13-.02-.27,.07-.37,.1-.1,.25-.12,.37-.06l4.7,2.34c.1,.05,.17,.16,.18,.27l.57,9.76c0,.16-.1,.3-.25,.34-.03,0-.05,0-.08,0Zm-4.62-11.73l4.18,9.6-.46-7.74-3.73-1.85Z"/>
              <polygon class="cls-2" points="84.67 299.05 81.31 285.53 81.94 285.37 85.3 298.89 84.67 299.05"/>
              <path class="cls-2" d="M96.86,304.81c-.07,0-.13-.02-.19-.06l-7.84-5.51c-.07-.05-.11-.12-.13-.19l-2.79-12.18,.64-.15,2.77,12.06,7.04,4.95-3.04-13.02,.63-.15,3.23,13.85c.03,.13-.02,.27-.13,.34-.05,.04-.12,.06-.18,.06Z"/>
              <path class="cls-2" d="M100.49,307.36c-.07,0-.13-.02-.19-.06l-3.63-2.55c-.07-.05-.11-.11-.13-.19l-3.23-13.85c-.04-.16,.06-.33,.22-.38,.16-.05,.34,.03,.4,.18l6.86,16.4c.06,.13,.02,.29-.1,.38-.06,.05-.13,.07-.2,.07Zm-3.34-3.07l2.61,1.83-4.92-11.77,2.32,9.94Z"/>
              <path class="cls-2" d="M112.82,294.57c-.06,0-.12-.02-.17-.05l-4.87-2.92-3.63,2.15c-.1,.06-.21,.06-.31,.01l-4.19-2.09c-.05-.03-.1-.07-.13-.12l-1.92-3.12-3.79,2.49c-.13,.08-.3,.07-.41-.04l-3.72-3.72,.46-.46,3.53,3.53,3.85-2.53c.07-.05,.16-.07,.25-.05,.09,.02,.16,.07,.21,.15l2.04,3.33,3.94,1.97,3.65-2.16c.1-.06,.23-.06,.33,0l4.93,2.96,6.34-1.15,.12,.64-6.46,1.17s-.04,0-.06,0Z"/>
              <path class="cls-2" d="M113.99,308.41s-.06,0-.1-.01l-9-2.76c-.13-.04-.22-.15-.23-.28l-1.01-11.86,.65-.05,.99,11.64,8.33,2.55-1.13-13.36,.65-.05,1.17,13.84c0,.11-.04,.21-.12,.28-.06,.05-.13,.07-.2,.07Z"/>
              <path class="cls-2" d="M113.99,308.41s-.02,0-.03,0l-13.49-1.05c-.15-.01-.28-.13-.3-.28-.02-.15,.06-.3,.21-.35l4.5-1.71c.07-.03,.14-.03,.21,0l9,2.76c.16,.05,.26,.21,.22,.37-.03,.15-.16,.26-.32,.26Zm-12.02-1.59l9.1,.71-6.06-1.86-3.03,1.15Z"/>
              <path class="cls-2" d="M113.66,308.11l-1.17-13.84c-.01-.17,.1-.32,.27-.35l6.75-1.16,.11,.64-6.45,1.11,1.14,13.55-.65,.05Z"/>
              <path class="cls-2" d="M120.48,308.64l-1.24-15.54c0-.1,.03-.2,.1-.27,.07-.07,.17-.1,.27-.08l8.53,1.4-.11,.64-8.12-1.33,1.21,15.12-.65,.05Z"/>
              <path class="cls-2" d="M129.03,305.5c-.17,0-.31-.13-.32-.3l-.93-10.7c0-.11,.04-.21,.12-.28l5.12-4.11c.07-.06,.16-.08,.25-.07l7.05,1.09c.15,.02,.27,.15,.28,.3,0,.15-.09,.29-.24,.33l-11.01,3.11v10.3c0,.17-.14,.32-.31,.33h-.01Zm-.59-10.88l.27,3.05v-3.04c0-.15,.1-.27,.24-.31l9.8-2.77-5.43-.84-4.87,3.91Z"/>
              <path class="cls-2" d="M132.79,309.88s-.02,0-.03,0l-7.64-.6c-.13-.01-.24-.09-.28-.21-.04-.12-.01-.25,.08-.34l3.87-3.78c.07-.06,.15-.1,.24-.09,.09,0,.17,.04,.23,.11l3.77,4.38c.09,.1,.1,.24,.04,.36-.06,.11-.17,.18-.29,.18Zm-6.9-1.19l6.13,.48-3.03-3.52-3.11,3.04Z"/>
              <path class="cls-2" d="M138.48,305.03c-.09,0-.18-.04-.24-.11-.06-.07-.09-.17-.08-.26l1.78-13.26c0-.06,.04-.13,.08-.17l3.14-3.49,.48,.44-3.07,3.41-1.72,12.78,4.96-.16,.02,.65-5.35,.17h-.01Z"/>
              <path class="cls-2" d="M148.1,290.72c-.05,0-.1-.01-.15-.04l-4.69-2.43,.3-.58,4.49,2.33,3.95-3.42,.43,.49-4.11,3.57c-.06,.05-.14,.08-.21,.08Z"/>
              <path class="cls-2" d="M157.9,298.46h0l-5.15-.1c-.17,0-.31-.14-.32-.31l-.54-11.21c0-.13,.06-.25,.18-.31l5.54-2.82c.1-.05,.22-.05,.32,.01,.1,.06,.16,.16,.16,.28l.15,14.13c0,.09-.03,.17-.1,.24-.06,.06-.14,.09-.23,.09Zm-4.84-.74l4.51,.09-.14-13.27-4.88,2.49,.51,10.7Z"/>
              <path class="cls-2" d="M163.67,290.92s-.07,0-.1-.02c-.13-.04-.22-.17-.22-.3l-.18-9.73c0-.09,.03-.18,.1-.24l2.89-2.77c.09-.09,.23-.11,.35-.06,.12,.05,.2,.17,.2,.3v8.97c-.01,.07-.04,.14-.08,.2l-2.7,3.53c-.06,.08-.16,.13-.26,.13Zm.15-9.92l.16,8.65,2.06-2.7v-8.09s-2.22,2.14-2.22,2.14Z"/>
              <rect class="cls-2" x="141.37" y="296.3" width="12.61" height=".65" transform="translate(-155.61 430.11) rotate(-87.29)"/>
            </g>
            <polygon class="cls-1" points="4.05 153.84 16.93 192.36 28.86 161.9 13.97 121.43 4.05 153.84"/>
            <polygon class="cls-4" points="53.05 204.23 12.11 220.28 37.69 238.42 53.05 204.23"/>
            <polygon class="cls-1" points="91.19 261.91 70.02 245.03 78.17 266.72 85.61 269.2 91.19 261.91"/>
            <polygon class="cls-4" points="102.8 205.99 93.52 197.95 111.89 181.9 102.8 205.99"/>
            <polygon class="cls-1" points="122.36 156.78 161.53 145.29 131.66 169.34 122.36 156.78"/>
            <polygon class="cls-4" points="126.43 269.82 131.51 241.74 120.73 245.4 121.89 256.1 121.19 274.01 126.43 269.82"/>
            <polygon class="cls-1" points="163.14 86.85 36.61 142.67 74.44 67 163.14 86.85"/>
            <polygon class="cls-4" points="78.79 7.46 182.37 22.96 74.44 67 78.79 7.46"/>
            <polygon class="cls-1" points="24.51 44.05 .33 95.53 26.07 85.14 34.13 53.98 24.51 44.05"/>
            <polygon class="cls-4" points="26.07 85.14 36.61 142.67 28.86 162.36 13.97 121.89 26.07 85.14"/>
            <polygon class="cls-3" points="163.14 86.85 182.37 22.96 205.93 130.89 163.14 86.85"/>
            <polygon class="cls-4" points="122.36 156.78 148.87 115.07 74.98 125.74 122.36 156.78"/>
            <polygon class="cls-1" points="211.21 163.76 228.92 114.52 240.14 100.23 235.38 162.81 211.21 163.76"/>
            <polygon class="cls-3" points="152.57 207.6 173.64 213.41 171.09 200.76 147.73 192.34 152.57 207.6"/>
            <polygon class="cls-1" points="188.41 239.8 202.57 242.27 222.03 230.18 173.64 213.41 188.41 239.8"/>
            <polygon class="cls-4" points="91.19 261.91 69.09 221.44 88.35 213.54 101.94 225.62 91.19 261.91"/>
            <polygon class="cls-3" points="148.25 310.76 179.05 270.48 178.02 287.19 148.25 310.76"/>
            <polygon class="cls-4" points="125.61 348.28 100.49 307.03 124.06 317.89 125.61 348.28"/>
            <polygon class="cls-3" points="42.81 318.82 54.43 279.78 71.9 314.98 56.77 320.99 42.81 318.82"/>
            <polygon class="cls-1" points="74.13 338.36 100.8 355.72 71.9 314.98 56.77 320.99 74.13 338.36"/>
            <polygon class="cls-1" points="204.44 276.14 194.34 315.56 203.45 313.24 211.78 299.31 204.44 276.14"/>
            <polygon class="cls-4" points="202.57 242.27 204.39 276.98 194.34 315.56 183.32 296.11 202.57 242.27"/>
            <path class="cls-2" d="M74.98,126.07c-.07,0-.15-.03-.21-.07L25.86,85.39c-.13-.11-.16-.29-.06-.43L78.52,7.28c.08-.12,.23-.17,.37-.13,.14,.04,.23,.18,.22,.32l-3.8,118.28c0,.12-.08,.24-.19,.29-.04,.02-.09,.03-.13,.03ZM26.5,85.08l48.18,39.98,3.75-116.49L26.5,85.08Z"/>
            <polygon class="cls-4" points="26.07 85.14 74.98 125.74 78.79 7.46 26.07 85.14"/>
            <path class="cls-2" d="M205.93,131.21s-.06,0-.09-.01l-57.06-15.82c-.17-.05-.27-.22-.23-.39L173.99,11.72c.04-.14,.16-.25,.31-.25h0c.15,0,.28,.1,.31,.24l31.63,119.09c.03,.11,0,.23-.09,.32-.06,.06-.14,.09-.23,.09Zm-56.67-16.37l56.21,15.58L174.31,13.11l-25.05,101.73Z"/>
            <polygon class="cls-1" points="174.3 11.8 148.87 115.07 205.93 130.89 174.3 11.8"/>
            <path class="cls-2" d="M148.87,115.4c-.11,0-.21-.05-.27-.15L78.51,7.64c-.08-.13-.07-.29,.04-.4,.1-.11,.27-.13,.4-.06L221.17,87.68c.11,.06,.17,.18,.16,.31,0,.13-.09,.23-.21,.28l-72.14,27.11s-.08,.02-.11,.02ZM79.79,8.4l69.22,106.27,71.24-26.77L79.79,8.4Z"/>
            <polygon class="cls-4" points="78.79 7.46 221.01 87.96 148.87 115.07 78.79 7.46"/>
            <path class="cls-2" d="M12.58,203.62c-.08,0-.15-.03-.21-.08-.08-.07-.12-.18-.11-.28l13.49-118.16c.02-.16,.16-.29,.32-.29h0c.17,0,.31,.13,.32,.29l12.28,111.47c.02,.16-.09,.31-.24,.35l-25.77,6.69s-.05,0-.08,0Zm13.48-115.56l-13.11,114.8,25.04-6.5-11.93-108.3Z"/>
            <path class="cls-2" d="M235.38,163.13s-.09-.01-.14-.03l-51.16-24.17c-.09-.04-.15-.12-.18-.21-.02-.09,0-.19,.05-.27l36.79-50.68c.08-.1,.21-.15,.33-.13,.13,.03,.22,.13,.25,.26l14.37,74.85c.02,.12-.02,.24-.12,.32-.06,.05-.13,.07-.2,.07Zm-50.66-24.62l50.22,23.73-14.11-73.48-36.11,49.75Z"/>
            <polygon class="cls-4" points="221.01 87.96 235.38 162.81 184.23 138.64 221.01 87.96"/>
            <path class="cls-2" d="M69.09,221.77c-.1,0-.2-.05-.26-.13-.09-.12-.08-.29,.01-.4l53.26-64.66c.11-.13,.3-.16,.44-.06,.14,.1,.18,.29,.09,.43l-34.01,56.76c-.04,.06-.09,.11-.16,.13l-19.26,7.9s-.08,.02-.12,.02Zm50.75-61.42l-49.67,60.3,17.96-7.37,31.71-52.93Z"/>
            <polygon class="cls-4" points="122.36 156.78 88.35 213.54 69.09 221.44 122.36 156.78"/>
            <path class="cls-2" d="M167.06,248.92c-.11,0-.21-.06-.27-.15l-43.4-67.78c-.08-.13-.06-.3,.05-.41,.11-.11,.28-.13,.41-.04l49.98,32.59c.11,.07,.17,.2,.14,.33l-6.58,35.19c-.02,.13-.13,.23-.26,.26-.02,0-.04,0-.06,0Zm-42.31-67.01l42.14,65.81,6.39-34.17-48.53-31.64Z"/>
            <polygon class="cls-1" points="123.66 180.82 173.64 213.41 167.06 248.6 123.66 180.82"/>
            <path class="cls-2" d="M125.61,348.61s-.07,0-.1-.01l-38.85-12.35c-.13-.04-.22-.16-.23-.3,0-.14,.07-.26,.2-.31l61.48-25.18c.13-.05,.28-.02,.37,.09,.09,.11,.1,.26,.03,.38l-22.64,37.52c-.06,.1-.17,.16-.28,.16Zm-37.89-12.71l37.75,12,22-36.46-59.74,24.46Z"/>
            <polygon class="cls-1" points="125.61 348.28 148.25 310.76 86.77 335.93 125.61 348.28"/>
            <path class="cls-2" d="M125.61,348.61c-.09,0-.19-.04-.25-.12-.1-.12-.1-.3,0-.42l52.41-61.09c.09-.11,.23-.14,.36-.09l33.38,12.77c.12,.05,.2,.15,.21,.28,.01,.13-.05,.25-.16,.31l-85.79,48.32s-.11,.04-.16,.04Zm52.51-61.03l-51.06,59.52,83.57-47.08-32.51-12.44Z"/>
            <polygon class="cls-1" points="178.02 287.19 211.4 299.96 125.61 348.28 178.02 287.19"/>
          </g>
          <ellipse class="cls-6" cx="120.23" cy="388.69" rx="109" ry="5.87"/>
        </g>
      </g>
    </g>
  </g>
</svg>